<?xml version="1.0" standalone="no"?>
<!DOCTYPE svg PUBLIC "-//W3C//DTD SVG 20010904//EN"
 "http://www.w3.org/TR/2001/REC-SVG-20010904/DTD/svg10.dtd">
<svg version="1.0" xmlns="http://www.w3.org/2000/svg"
 width="100.000000pt" height="100.000000pt" viewBox="0 0 100.000000 100.000000"
 preserveAspectRatio="xMidYMid meet">
<metadata>
Created by potrace 1.16, written by Peter Selinger 2001-2019
</metadata>
<g transform="translate(0.000000,100.000000) scale(0.100000,-0.100000)"
fill="#000000" stroke="none">
<path d="M0 500 l0 -500 500 0 500 0 0 500 0 500 -500 0 -500 0 0 -500z m465
105 c29 -28 31 -43 8 -52 -11 -4 -22 1 -31 15 -17 25 -54 29 -72 7 -16 -19 -6
-31 38 -45 64 -21 82 -37 82 -75 0 -62 -73 -94 -139 -60 -30 15 -45 40 -35 56
9 15 29 10 47 -12 21 -24 65 -22 81 4 13 21 1 31 -53 46 -46 14 -71 39 -71 72
0 62 98 92 145 44z m223 3 c3 -15 -4 -18 -32 -18 l-36 0 0 -100 c0 -93 -1
-100 -20 -100 -19 0 -20 7 -20 100 l0 100 -40 0 c-27 0 -40 4 -40 13 0 25 13
28 99 25 72 -3 86 -6 89 -20z"/>
</g>
</svg>
